<svg width="600" height="400" viewBox="0 0 600 400" fill="none" xmlns="http://www.w3.org/2000/svg">
    <g clip-path="url(#clip0_51_34)">
        <path d="M580 0H20C8.9543 0 0 8.9543 0 20V380C0 391.046 8.9543 400 20 400H580C591.046 400 600 391.046 600 380V20C600 8.9543 591.046 0 580 0Z"
              fill="#1E293B"/>
        <path d="M340 40H60C54.4772 40 50 44.4772 50 50V350C50 355.523 54.4772 360 60 360H340C345.523 360 350 355.523 350 350V50C350 44.4772 345.523 40 340 40Z"
              fill="#334155"/>
        <path opacity="0.8"
              d="M315 70H85C82.2386 70 80 72.2386 80 75V165C80 167.761 82.2386 170 85 170H315C317.761 170 320 167.761 320 165V75C320 72.2386 317.761 70 315 70Z"
              fill="#8B5CF6"/>
        <path opacity="0.8"
              d="M225 190H85C82.2386 190 80 192.239 80 195V205C80 207.761 82.2386 210 85 210H225C227.761 210 230 207.761 230 205V195C230 192.239 227.761 190 225 190Z"
              fill="#EC4899"/>
        <path opacity="0.8"
              d="M315 230H85C82.2386 230 80 232.239 80 235V325C80 327.761 82.2386 330 85 330H315C317.761 330 320 327.761 320 325V235C320 232.239 317.761 230 315 230Z"
              fill="#10B981"/>
        <path d="M400 125C402.761 125 405 122.761 405 120C405 117.239 402.761 115 400 115C397.239 115 395 117.239 395 120C395 122.761 397.239 125 400 125Z"
              fill="#FFD700"/>
        <path d="M400 120H500Z" fill="black"/>
        <path d="M400 120H500" stroke="#FFD700" stroke-width="2"/>
        <path opacity="0.3"
              d="M565 100H505C502.239 100 500 102.239 500 105V135C500 137.761 502.239 140 505 140H565C567.761 140 570 137.761 570 135V105C570 102.239 567.761 100 565 100Z"
              fill="#FFD700"/>
        <path d="M400 205C402.761 205 405 202.761 405 200C405 197.239 402.761 195 400 195C397.239 195 395 197.239 395 200C395 202.761 397.239 205 400 205Z"
              fill="#FFD700"/>
        <path d="M400 200H500Z" fill="black"/>
        <path d="M400 200H500" stroke="#FFD700" stroke-width="2"/>
        <path opacity="0.3"
              d="M565 180H505C502.239 180 500 182.239 500 185V215C500 217.761 502.239 220 505 220H565C567.761 220 570 217.761 570 215V185C570 182.239 567.761 180 565 180Z"
              fill="#FFD700"/>
        <path d="M400 285C402.761 285 405 282.761 405 280C405 277.239 402.761 275 400 275C397.239 275 395 277.239 395 280C395 282.761 397.239 285 400 285Z"
              fill="#FFD700"/>
        <path d="M400 280H500Z" fill="black"/>
        <path d="M400 280H500" stroke="#FFD700" stroke-width="2"/>
        <path opacity="0.3"
              d="M565 260H505C502.239 260 500 262.239 500 265V295C500 297.761 502.239 300 505 300H565C567.761 300 570 297.761 570 295V265C570 262.239 567.761 260 565 260Z"
              fill="#FFD700"/>
        <path d="M525 115L535 125L545 115" stroke="#10B981" stroke-width="3"/>
        <path d="M525 195L535 205L545 195" stroke="#10B981" stroke-width="3"/>
        <path d="M525 275L535 285L545 275" stroke="#10B981" stroke-width="3"/>
    </g>
    <defs>
        <clipPath id="clip0_51_34">
            <rect width="600" height="400" fill="white"/>
        </clipPath>
    </defs>
</svg>
